<svg xmlns="http://www.w3.org/2000/svg" width="61" height="60" fill="none" viewBox="0 0 61 60">
    <g opacity=".5" style="mix-blend-mode:hard-light">
        <mask id="a" width="57" height="56" x="2.357" y="1.5" fill="#000" maskUnits="userSpaceOnUse">
            <path fill="#fff" d="M2.357 1.5h57v56h-57z"/>
            <path d="M9.357 56.5h-6v-6h6zm32.571-42h3.429v1.856h2.286v2.858h4.285v2.857h2.858v2.858h2.857v12.285h-2.857v2.857h-2.858v2.858h-4.285v2.857h-5.715v2.857H19.071v-2.857h-3.714V50.5h-6v-6h4v-1.571H9.07V40.07H6.214v-2.857H3.357V24.929h2.857V22.07h2.857v-2.857h4.286v-2.858h5.714V13.5h22.857zm-22.857 7.57h-4.285v2.858h-2.858v2.857H9.071v6.572h2.857v2.858h2.858v2.857h.57V38.5h6v4.429h20.572v-2.857h4.286v-2.857h2.858v-2.858h2.856v-6.572h-2.856v-2.857h-2.858V22.07h-4.286V20.5h-2.571v-1.286H19.07zm8.286 16.43h-6v-6h6zm0-12h6v4h6v6h-6v-4h-6v-2h-6v-6h6zm12 0h-6v-6h6zm12-12h-6v-6h6zm6-6h-6v-6h6z"/>
        </mask>
        <path fill="#000" d="M9.357 56.5h-6v-6h6zm32.571-42h3.429v1.856h2.286v2.858h4.285v2.857h2.858v2.858h2.857v12.285h-2.857v2.857h-2.858v2.858h-4.285v2.857h-5.715v2.857H19.071v-2.857h-3.714V50.5h-6v-6h4v-1.571H9.07V40.07H6.214v-2.857H3.357V24.929h2.857V22.07h2.857v-2.857h4.286v-2.858h5.714V13.5h22.857zm-22.857 7.57h-4.285v2.858h-2.858v2.857H9.071v6.572h2.857v2.858h2.858v2.857h.57V38.5h6v4.429h20.572v-2.857h4.286v-2.857h2.858v-2.858h2.856v-6.572h-2.856v-2.857h-2.858V22.07h-4.286V20.5h-2.571v-1.286H19.07zm8.286 16.43h-6v-6h6zm0-12h6v4h6v6h-6v-4h-6v-2h-6v-6h6zm12 0h-6v-6h6zm12-12h-6v-6h6zm6-6h-6v-6h6z"/>
        <path fill="#fff" d="M9.357 56.5v1h1v-1zm-6 0h-1v1h1zm0-6v-1h-1v1zm38.571-36h-1v1h1zm3.429 1.856h-1v1h1zm2.286 0h1v-1h-1zm0 2.858h-1v1h1zm4.285 0h1v-1h-1zm0 2.857h-1v1h1zm2.858 0h1v-1h-1zm0 2.858h-1v1h1zm2.857 0h1v-1h-1zm0 12.285v1h1v-1zm-2.857 0v-1h-1v1zm0 2.857v1h1v-1zm-2.858 0v-1h-1v1zm0 2.858v1h1v-1zm-4.285 0v-1h-1v1zm0 2.857v1h1v-1zm-5.715 0v-1h-1v1zm0 2.857v1h1v-1zm-22.857 0h-1v1h1zm0-2.857h1v-1h-1zm-3.714 0v-1h-1v1zm0 4.714v1h1v-1zm-6-6v-1h-1v1zm4 0v1h1v-1zm0-1.571h1v-1h-1zm-4.286 0h-1v1h1zm0-2.858h1v-1h-1zm-2.857 0h-1v1h1zm0-2.857h1v-1h-1zm-2.857 0h-1v1h1zm0-12.285v-1h-1v1zm2.857 0v1h1v-1zm0-2.858v-1h-1v1zm2.857 0v1h1v-1zm0-2.857v-1h-1v1zm4.286 0v1h1v-1zm0-2.858v-1h-1v1zm5.714 0v1h1v-1zm0-2.856v-1h-1v1zm22.857 0h1v-1h-1zm-22.857 8.57v1h1v-1zm-4.285 0v-1h-1v1zm0 2.858v1h1v-1zm-2.858 0v-1h-1v1zm0 2.857v1h1v-1zm-2.857 0v-1h-1v1zm0 6.572h-1v1h1zm2.857 0h1v-1h-1zm0 2.858h-1v1h1zm2.858 0h1v-1h-1zm0 2.857h-1v1h1zm.57 0v1h1v-1zm0-1.572v-1h-1v1zm6 4.429h-1v1h1zm20.572 0v1h1v-1zm0-2.857v-1h-1v1zm4.286 0v1h1v-1zm0-2.857v-1h-1v1zm2.858 0v1h1v-1zm0-2.858v-1h-1v1zm2.856 0v1h1v-1zm0-6.572h1v-1h-1zm-2.856 0h-1v1h1zm0-2.857h1v-1h-1zm-2.858 0h-1v1h1zm0-2.858h1v-1h-1zm-4.286 0h-1v1h1zm0-1.57h1v-1h-1zm-2.571-1.286h1v-1h-1zm-20.286 0v-1h-1v1zM27.357 38.5v1h1v-1zm-6-6v-1h-1v1zm6-6h-1v1h1zm6 4h-1v1h1zm6 0h1v-1h-1zm0 6v1h1v-1zm-6 0h-1v1h1zm0-4h1v-1h-1zm-6-2h1v-1h-1zm-6 0h-1v1h1zm0-6v-1h-1v1zm6 0h1v-1h-1zm12 2v1h1v-1zm-6-6v-1h-1v1zm18-6v1h1v-1zm-6-6v-1h-1v1zm12 0v1h1v-1zm-6-6v-1h-1v1zm6 0h1v-1h-1zm-48 54v-1h-6v2h6zm-6 0h1v-6h-2v6zm0-6v1h6v-2h-6zm6 0h-1v6h2v-6zm32.571-36v1h3.429v-2h-3.429zm3.429 0h-1v1.856h2V14.5zm0 1.856v1h2.286v-2h-2.286zm2.286 0h-1v2.858h2v-2.858zm0 2.858v1h4.285v-2h-4.285zm4.285 0h-1v2.857h2v-2.857zm0 2.857v1h2.858v-2h-2.858zm2.858 0h-1v2.858h2V22.07zm0 2.858v1h2.857v-2h-2.857zm2.857 0h-1v12.285h2V24.929zm0 12.285v-1h-2.857v2h2.857zm-2.857 0h-1v2.857h2v-2.857zm0 2.857v-1h-2.858v2h2.858zm-2.858 0h-1v2.858h2V40.07zm0 2.858v-1h-4.285v2h4.285zm-4.285 0h-1v2.857h2V42.93zm0 2.857v-1h-5.715v2h5.715zm-5.715 0h-1v2.857h2v-2.857zm0 2.857v-1H19.071v2h22.857zm-22.857 0h1v-2.857h-2v2.857zm0-2.857v-1h-3.714v2h3.714zm-3.714 0h-1V50.5h2v-4.714zm0 4.714v-1h-6v2h6zm-6 0h1v-6h-2v6zm0-6v1h4v-2h-4zm4 0h1v-1.571h-2V44.5zm0-1.571v-1H9.07v2h4.286zm-4.286 0h1V40.07h-2v2.858zm0-2.858v-1H6.214v2h2.857zm-2.857 0h1v-2.857h-2v2.857zm0-2.857v-1H3.357v2h2.857zm-2.857 0h1V24.929h-2v12.285zm0-12.285v1h2.857v-2H3.357zm2.857 0h1V22.07h-2v2.858zm0-2.858v1h2.857v-2H6.214zm2.857 0h1v-2.857h-2v2.857zm0-2.857v1h4.286v-2H9.07zm4.286 0h1v-2.858h-2v2.858zm0-2.858v1h5.714v-2h-5.714zm5.714 0h1V13.5h-2v2.856zm0-2.856v1h22.857v-2H19.071zm22.857 0h-1v1h2v-1zm-22.857 8.57v-1h-4.285v2h4.285zm-4.285 0h-1v2.858h2V22.07zm0 2.858v-1h-2.858v2h2.858zm-2.858 0h-1v2.857h2v-2.857zm0 2.857v-1H9.071v2h2.857zm-2.857 0h-1v6.572h2v-6.572zm0 6.572v1h2.857v-2H9.071zm2.857 0h-1v2.858h2v-2.858zm0 2.858v1h2.858v-2h-2.858zm2.858 0h-1v2.857h2v-2.857zm0 2.857v1h.57v-2h-.57zm.57 0h1V38.5h-2v1.572zm0-1.572v1h6v-2h-6zm6 0h-1v4.429h2V38.5zm0 4.429v1h20.572v-2H21.357zm20.572 0h1v-2.857h-2v2.857zm0-2.857v1h4.286v-2h-4.286zm4.286 0h1v-2.857h-2v2.857zm0-2.857v1h2.858v-2h-2.858zm2.858 0h1v-2.858h-2v2.858zm0-2.858v1h2.856v-2h-2.856zm2.856 0h1v-6.572h-2v6.572zm0-6.572v-1h-2.856v2h2.856zm-2.856 0h1v-2.857h-2v2.857zm0-2.857v-1h-2.858v2h2.858zm-2.858 0h1V22.07h-2v2.858zm0-2.858v-1h-4.286v2h4.286zm-4.286 0h1V20.5h-2v1.57zm0-1.57v-1h-2.571v2h2.571zm-2.571 0h1v-1.286h-2V20.5zm0-1.286v-1H19.07v2h20.286zm-20.286 0h-1v2.856h2v-2.856zM27.357 38.5v-1h-6v2h6zm-6 0h1v-6h-2v6zm0-6v1h6v-2h-6zm6 0h-1v6h2v-6zm0-6v1h6v-2h-6zm6 0h-1v4h2v-4zm0 4v1h6v-2h-6zm6 0h-1v6h2v-6zm0 6v-1h-6v2h6zm-6 0h1v-4h-2v4zm0-4v-1h-6v2h6zm-6 0h1v-2h-2v2zm0-2v-1h-6v2h6zm-6 0h1v-6h-2v6zm0-6v1h6v-2h-6zm6 0h-1v2h2v-2zm12 2v-1h-6v2h6zm-6 0h1v-6h-2v6zm0-6v1h6v-2h-6zm6 0h-1v6h2v-6zm12-6v-1h-6v2h6zm-6 0h1v-6h-2v6zm0-6v1h6v-2h-6zm6 0h-1v6h2v-6zm6 0v-1h-6v2h6zm-6 0h1v-6h-2v6zm0-6v1h6v-2h-6zm6 0h-1v6h2v-6z" mask="url(#a)"/>
    </g>
</svg>